<svg xmlns="http://www.w3.org/2000/svg" xmlns:xlink="http://www.w3.org/1999/xlink" contentStyleType="text/css" data-diagram-type="SEQUENCE" height="1047px" preserveAspectRatio="none" style="width:994px;height:1047px;background:#FFFFFF;" version="1.1" viewBox="0 0 994 1047" width="994px" zoomAndPan="magnify"><title>Stripe Card Payment Flow - ShopSense</title><defs/><g><text fill="#000000" font-family="sans-serif" font-size="14" font-weight="bold" lengthAdjust="spacing" textLength="308.376" x="338.9631" y="27.9951">Stripe Card Payment Flow - ShopSense</text><rect fill="none" height="372.0625" style="stroke:#000000;stroke-width:1.5;" width="967.3022" x="10" y="564.2813"/><g><title>User</title><rect fill="#000000" fill-opacity="0.00000" height="832.4531" width="8" x="34.9551" y="120.8906"/><line style="stroke:#181818;stroke-width:0.5;stroke-dasharray:5,5;" x1="38" x2="38" y1="120.8906" y2="953.3438"/></g><g><title>Frontend</title><rect fill="#000000" fill-opacity="0.00000" height="832.4531" width="8" x="310.0747" y="120.8906"/><line style="stroke:#181818;stroke-width:0.5;stroke-dasharray:5,5;" x1="313.52" x2="313.52" y1="120.8906" y2="953.3438"/></g><g><title>Backend</title><rect fill="#000000" fill-opacity="0.00000" height="832.4531" width="8" x="636.75" y="120.8906"/><line style="stroke:#181818;stroke-width:0.5;stroke-dasharray:5,5;" x1="640.2017" x2="640.2017" y1="120.8906" y2="953.3438"/></g><g><title>Stripe API</title><rect fill="#000000" fill-opacity="0.00000" height="832.4531" width="8" x="847.9932" y="120.8906"/><line style="stroke:#181818;stroke-width:0.5;stroke-dasharray:5,5;" x1="851.9331" x2="851.9331" y1="120.8906" y2="953.3438"/></g><g><title>DB</title><rect fill="#000000" fill-opacity="0.00000" height="832.4531" width="8" x="931.1777" y="120.8906"/><line style="stroke:#181818;stroke-width:0.5;stroke-dasharray:5,5;" x1="935.0532" x2="935.0532" y1="120.8906" y2="953.3438"/></g><g class="participant participant-head" data-participant="User"><text fill="#000000" font-family="sans-serif" font-size="14" lengthAdjust="spacing" textLength="31.9102" x="20" y="117.5889">User</text><ellipse cx="38.9551" cy="53.0938" fill="#E2E2F0" rx="8" ry="8" style="stroke:#181818;stroke-width:0.5;"/><path d="M38.9551,61.0938 L38.9551,88.0938 M25.9551,69.0938 L51.9551,69.0938 M38.9551,88.0938 L25.9551,103.0938 M38.9551,88.0938 L51.9551,103.0938" fill="none" style="stroke:#181818;stroke-width:0.5;"/></g><g class="participant participant-tail" data-participant="User"><text fill="#000000" font-family="sans-serif" font-size="14" lengthAdjust="spacing" textLength="31.9102" x="20" y="965.3389">User</text><ellipse cx="38.9551" cy="977.1406" fill="#E2E2F0" rx="8" ry="8" style="stroke:#181818;stroke-width:0.5;"/><path d="M38.9551,985.1406 L38.9551,1012.1406 M25.9551,993.1406 L51.9551,993.1406 M38.9551,1012.1406 L25.9551,1027.1406 M38.9551,1012.1406 L51.9551,1027.1406" fill="none" style="stroke:#181818;stroke-width:0.5;"/></g><g class="participant participant-head" data-participant="FE"><rect fill="#E2E2F0" height="46.5938" rx="2.5" ry="2.5" style="stroke:#181818;stroke-width:0.5;" width="77.1094" x="275.52" y="73.2969"/><text fill="#000000" font-family="sans-serif" font-size="14" lengthAdjust="spacing" textLength="63.1094" x="282.52" y="93.292">Frontend</text><text fill="#000000" font-family="sans-serif" font-size="14" lengthAdjust="spacing" textLength="53.6211" x="287.2642" y="109.5889">(Vue.js)</text></g><g class="participant participant-tail" data-participant="FE"><rect fill="#E2E2F0" height="46.5938" rx="2.5" ry="2.5" style="stroke:#181818;stroke-width:0.5;" width="77.1094" x="275.52" y="952.3438"/><text fill="#000000" font-family="sans-serif" font-size="14" lengthAdjust="spacing" textLength="63.1094" x="282.52" y="972.3389">Frontend</text><text fill="#000000" font-family="sans-serif" font-size="14" lengthAdjust="spacing" textLength="53.6211" x="287.2642" y="988.6357">(Vue.js)</text></g><g class="participant participant-head" data-participant="BE"><rect fill="#E2E2F0" height="46.5938" rx="2.5" ry="2.5" style="stroke:#181818;stroke-width:0.5;" width="101.0967" x="590.2017" y="73.2969"/><text fill="#000000" font-family="sans-serif" font-size="14" lengthAdjust="spacing" textLength="60.3613" x="610.5693" y="93.292">Backend</text><text fill="#000000" font-family="sans-serif" font-size="14" lengthAdjust="spacing" textLength="87.0967" x="597.2017" y="109.5889">(Django API)</text></g><g class="participant participant-tail" data-participant="BE"><rect fill="#E2E2F0" height="46.5938" rx="2.5" ry="2.5" style="stroke:#181818;stroke-width:0.5;" width="101.0967" x="590.2017" y="952.3438"/><text fill="#000000" font-family="sans-serif" font-size="14" lengthAdjust="spacing" textLength="60.3613" x="610.5693" y="972.3389">Backend</text><text fill="#000000" font-family="sans-serif" font-size="14" lengthAdjust="spacing" textLength="87.0967" x="597.2017" y="988.6357">(Django API)</text></g><g class="participant participant-head" data-participant="STRIPE"><rect fill="#E2E2F0" height="30.2969" rx="2.5" ry="2.5" style="stroke:#181818;stroke-width:0.5;" width="82.1201" x="810.9331" y="89.5938"/><text fill="#000000" font-family="sans-serif" font-size="14" lengthAdjust="spacing" textLength="68.1201" x="817.9331" y="109.5889">Stripe API</text></g><g class="participant participant-tail" data-participant="STRIPE"><rect fill="#E2E2F0" height="30.2969" rx="2.5" ry="2.5" style="stroke:#181818;stroke-width:0.5;" width="82.1201" x="810.9331" y="952.3438"/><text fill="#000000" font-family="sans-serif" font-size="14" lengthAdjust="spacing" textLength="68.1201" x="817.9331" y="972.3389">Stripe API</text></g><g class="participant participant-head" data-participant="DB"><text fill="#000000" font-family="sans-serif" font-size="14" lengthAdjust="spacing" textLength="20.3848" x="921.9854" y="101.292">DB</text><text fill="#000000" font-family="sans-serif" font-size="14" lengthAdjust="spacing" textLength="58.249" x="903.0532" y="117.5889">(Orders)</text><path d="M917.1777,52.2969 C917.1777,42.2969 935.1777,42.2969 935.1777,42.2969 C935.1777,42.2969 953.1777,42.2969 953.1777,52.2969 L953.1777,78.2969 C953.1777,88.2969 935.1777,88.2969 935.1777,88.2969 C935.1777,88.2969 917.1777,88.2969 917.1777,78.2969 L917.1777,52.2969" fill="#E2E2F0" style="stroke:#181818;stroke-width:0.5;"/><path d="M917.1777,52.2969 C917.1777,62.2969 935.1777,62.2969 935.1777,62.2969 C935.1777,62.2969 953.1777,62.2969 953.1777,52.2969" fill="none" style="stroke:#181818;stroke-width:0.5;"/></g><g class="participant participant-tail" data-participant="DB"><text fill="#000000" font-family="sans-serif" font-size="14" lengthAdjust="spacing" textLength="20.3848" x="921.9854" y="965.3389">DB</text><text fill="#000000" font-family="sans-serif" font-size="14" lengthAdjust="spacing" textLength="58.249" x="903.0532" y="981.6357">(Orders)</text><path d="M917.1777,994.9375 C917.1777,984.9375 935.1777,984.9375 935.1777,984.9375 C935.1777,984.9375 953.1777,984.9375 953.1777,994.9375 L953.1777,1020.9375 C953.1777,1030.9375 935.1777,1030.9375 935.1777,1030.9375 C935.1777,1030.9375 917.1777,1030.9375 917.1777,1020.9375 L917.1777,994.9375" fill="#E2E2F0" style="stroke:#181818;stroke-width:0.5;"/><path d="M917.1777,994.9375 C917.1777,1004.9375 935.1777,1004.9375 935.1777,1004.9375 C935.1777,1004.9375 953.1777,1004.9375 953.1777,994.9375" fill="none" style="stroke:#181818;stroke-width:0.5;"/></g><g class="message" data-participant-1="User" data-participant-2="FE"><polygon fill="#181818" points="302.0747,163.1563,312.0747,167.1563,302.0747,171.1563,306.0747,167.1563" style="stroke:#181818;stroke-width:1;"/><line style="stroke:#181818;stroke-width:1;" x1="38.9551" x2="308.0747" y1="167.1563" y2="167.1563"/><text fill="#000000" font-family="sans-serif" font-size="13" lengthAdjust="spacing" textLength="124.103" x="45.9551" y="146.9575">Review cart &amp; click</text><text fill="#000000" font-family="sans-serif" font-size="13" lengthAdjust="spacing" textLength="110.7031" x="45.9551" y="162.0903">\"Pay with Card\"</text></g><g class="message" data-participant-1="FE" data-participant-2="BE"><polygon fill="#181818" points="628.75,207.4219,638.75,211.4219,628.75,215.4219,632.75,211.4219" style="stroke:#181818;stroke-width:1;"/><line style="stroke:#181818;stroke-width:1;" x1="314.0747" x2="634.75" y1="211.4219" y2="211.4219"/><text fill="#000000" font-family="sans-serif" font-size="13" lengthAdjust="spacing" textLength="102.1274" x="321.0747" y="191.2231">POST /checkout</text><text fill="#000000" font-family="sans-serif" font-size="13" lengthAdjust="spacing" textLength="133.3135" x="321.0747" y="206.356">(cart, address, total)</text></g><g class="message" data-participant-1="BE" data-participant-2="DB"><polygon fill="#181818" points="923.1777,251.6875,933.1777,255.6875,923.1777,259.6875,927.1777,255.6875" style="stroke:#181818;stroke-width:1;"/><line style="stroke:#181818;stroke-width:1;" x1="640.75" x2="929.1777" y1="255.6875" y2="255.6875"/><text fill="#000000" font-family="sans-serif" font-size="13" lengthAdjust="spacing" textLength="139.8325" x="647.75" y="235.4888">create pending Order</text><text fill="#000000" font-family="sans-serif" font-size="13" lengthAdjust="spacing" textLength="191.9912" x="647.75" y="250.6216">(status=pending, paid=false)</text></g><g class="message" data-participant-1="BE" data-participant-2="STRIPE"><polygon fill="#181818" points="839.9932,295.9531,849.9932,299.9531,839.9932,303.9531,843.9932,299.9531" style="stroke:#181818;stroke-width:1;"/><line style="stroke:#181818;stroke-width:1;" x1="640.75" x2="845.9932" y1="299.9531" y2="299.9531"/><text fill="#000000" font-family="sans-serif" font-size="13" lengthAdjust="spacing" textLength="143.6157" x="647.75" y="279.7544">Create PaymentIntent</text><text fill="#000000" font-family="sans-serif" font-size="13" lengthAdjust="spacing" textLength="187.2432" x="647.75" y="294.8872">(amount, currency, order_id)</text></g><g class="message" data-participant-1="STRIPE" data-participant-2="BE"><polygon fill="#181818" points="651.75,340.2188,641.75,344.2188,651.75,348.2188,647.75,344.2188" style="stroke:#181818;stroke-width:1;"/><line style="stroke:#181818;stroke-width:1;stroke-dasharray:2,2;" x1="645.75" x2="850.9932" y1="344.2188" y2="344.2188"/><text fill="#000000" font-family="sans-serif" font-size="13" lengthAdjust="spacing" textLength="96.002" x="657.75" y="324.02">PaymentIntent</text><text fill="#000000" font-family="sans-serif" font-size="13" lengthAdjust="spacing" textLength="112.8359" x="657.75" y="339.1528">(id, client_secret)</text></g><g class="message" data-participant-1="BE" data-participant-2="FE"><polygon fill="#181818" points="325.0747,384.4844,315.0747,388.4844,325.0747,392.4844,321.0747,388.4844" style="stroke:#181818;stroke-width:1;"/><line style="stroke:#181818;stroke-width:1;stroke-dasharray:2,2;" x1="319.0747" x2="639.75" y1="388.4844" y2="388.4844"/><text fill="#000000" font-family="sans-serif" font-size="13" lengthAdjust="spacing" textLength="57.3892" x="331.0747" y="368.2856">order_id,</text><text fill="#000000" font-family="sans-serif" font-size="13" lengthAdjust="spacing" textLength="82.564" x="331.0747" y="383.4185">client_secret</text></g><rect fill="#EEEEEE" height="3" style="stroke:#EEEEEE;stroke-width:1;" width="987.3022" x="0" y="417.0508"/><line style="stroke:#000000;stroke-width:1;" x1="0" x2="987.3022" y1="417.0508" y2="417.0508"/><line style="stroke:#000000;stroke-width:1;" x1="0" x2="987.3022" y1="420.0508" y2="420.0508"/><rect fill="#EEEEEE" height="23.1328" style="stroke:#000000;stroke-width:2;" width="233.0576" x="377.1223" y="406.4844"/><text fill="#000000" font-family="sans-serif" font-size="13" font-weight="bold" lengthAdjust="spacing" textLength="214.5317" x="383.1223" y="422.5513">Card confirmation in browser</text><g class="message" data-participant-1="User" data-participant-2="FE"><polygon fill="#181818" points="302.0747,456.75,312.0747,460.75,302.0747,464.75,306.0747,460.75" style="stroke:#181818;stroke-width:1;"/><line style="stroke:#181818;stroke-width:1;" x1="38.9551" x2="308.0747" y1="460.75" y2="460.75"/><text fill="#000000" font-family="sans-serif" font-size="13" lengthAdjust="spacing" textLength="115.1782" x="45.9551" y="455.6841">Enter card details</text></g><g class="message" data-participant-1="FE" data-participant-2="STRIPE"><polygon fill="#181818" points="839.9932,501.0156,849.9932,505.0156,839.9932,509.0156,843.9932,505.0156" style="stroke:#181818;stroke-width:1;"/><line style="stroke:#181818;stroke-width:1;" x1="314.0747" x2="845.9932" y1="505.0156" y2="505.0156"/><text fill="#000000" font-family="sans-serif" font-size="13" lengthAdjust="spacing" textLength="137.6743" x="321.0747" y="484.8169">confirmCardPayment</text><text fill="#000000" font-family="sans-serif" font-size="13" lengthAdjust="spacing" textLength="163.0967" x="321.0747" y="499.9497">(client_secret, card data)</text></g><g class="message" data-participant-1="STRIPE" data-participant-2="FE"><polygon fill="#181818" points="325.0747,545.2813,315.0747,549.2813,325.0747,553.2813,321.0747,549.2813" style="stroke:#181818;stroke-width:1;"/><line style="stroke:#181818;stroke-width:1;stroke-dasharray:2,2;" x1="319.0747" x2="850.9932" y1="549.2813" y2="549.2813"/><text fill="#000000" font-family="sans-serif" font-size="13" lengthAdjust="spacing" textLength="99.106" x="331.0747" y="529.0825">payment result</text><text fill="#000000" font-family="sans-serif" font-size="13" lengthAdjust="spacing" textLength="106.7231" x="331.0747" y="544.2153">(success/failure)</text></g><path d="M10,564.2813 L74.4429,564.2813 L74.4429,571.4141 L64.4429,581.4141 L10,581.4141 L10,564.2813" fill="#EEEEEE" style="stroke:#000000;stroke-width:1.5;"/><rect fill="none" height="372.0625" style="stroke:#000000;stroke-width:1.5;" width="967.3022" x="10" y="564.2813"/><text fill="#000000" font-family="sans-serif" font-size="13" font-weight="bold" lengthAdjust="spacing" textLength="19.4429" x="25" y="577.3481">alt</text><text fill="#000000" font-family="sans-serif" font-size="11" font-weight="bold" lengthAdjust="spacing" textLength="58.0293" x="89.4429" y="576.4917">[success]</text><g class="message" data-participant-1="FE" data-participant-2="BE"><polygon fill="#181818" points="628.75,613.6797,638.75,617.6797,628.75,621.6797,632.75,617.6797" style="stroke:#181818;stroke-width:1;"/><line style="stroke:#181818;stroke-width:1;" x1="314.0747" x2="634.75" y1="617.6797" y2="617.6797"/><text fill="#000000" font-family="sans-serif" font-size="13" lengthAdjust="spacing" textLength="154.6035" x="321.0747" y="597.481">POST /payment/confirm</text><text fill="#000000" font-family="sans-serif" font-size="13" lengthAdjust="spacing" textLength="302.6753" x="321.0747" y="612.6138">(order_id, payment_intent_id, status=success)</text></g><g class="message" data-participant-1="BE" data-participant-2="DB"><polygon fill="#181818" points="923.1777,688.2109,933.1777,692.2109,923.1777,696.2109,927.1777,692.2109" style="stroke:#181818;stroke-width:1;"/><line style="stroke:#181818;stroke-width:1;" x1="640.75" x2="929.1777" y1="692.2109" y2="692.2109"/><text fill="#000000" font-family="sans-serif" font-size="13" lengthAdjust="spacing" textLength="87.1089" x="647.75" y="641.7466">update Order</text><text fill="#000000" font-family="sans-serif" font-size="13" lengthAdjust="spacing" textLength="69.7861" x="647.75" y="656.8794">paid=true,</text><text fill="#000000" font-family="sans-serif" font-size="13" lengthAdjust="spacing" textLength="103.3589" x="647.75" y="672.0122">status=\"Paid\",</text><text fill="#000000" font-family="sans-serif" font-size="13" lengthAdjust="spacing" textLength="125.9819" x="647.75" y="687.145">payment_intent=...</text></g><g class="message" data-participant-1="BE" data-participant-2="FE"><polygon fill="#181818" points="325.0747,732.4766,315.0747,736.4766,325.0747,740.4766,321.0747,736.4766" style="stroke:#181818;stroke-width:1;"/><line style="stroke:#181818;stroke-width:1;stroke-dasharray:2,2;" x1="319.0747" x2="639.75" y1="736.4766" y2="736.4766"/><text fill="#000000" font-family="sans-serif" font-size="13" lengthAdjust="spacing" textLength="82.4053" x="331.0747" y="716.2778">confirmation</text><text fill="#000000" font-family="sans-serif" font-size="13" lengthAdjust="spacing" textLength="110.5127" x="331.0747" y="731.4106">(order summary)</text></g><g class="message" data-participant-1="FE" data-participant-2="User"><polygon fill="#181818" points="49.9551,776.7422,39.9551,780.7422,49.9551,784.7422,45.9551,780.7422" style="stroke:#181818;stroke-width:1;"/><line style="stroke:#181818;stroke-width:1;stroke-dasharray:2,2;" x1="43.9551" x2="313.0747" y1="780.7422" y2="780.7422"/><text fill="#000000" font-family="sans-serif" font-size="13" lengthAdjust="spacing" textLength="35.0771" x="55.9551" y="760.5435">Show</text><text fill="#000000" font-family="sans-serif" font-size="13" lengthAdjust="spacing" textLength="251.1196" x="55.9551" y="775.6763">\"Payment successful\" + order details</text></g><line style="stroke:#000000;stroke-width:1;stroke-dasharray:2,2;" x1="10" x2="977.3022" y1="789.7422" y2="789.7422"/><text fill="#000000" font-family="sans-serif" font-size="11" font-weight="bold" lengthAdjust="spacing" textLength="50.5205" x="15" y="799.9526">[failure]</text><g class="message" data-participant-1="FE" data-participant-2="BE"><polygon fill="#181818" points="628.75,835.8125,638.75,839.8125,628.75,843.8125,632.75,839.8125" style="stroke:#181818;stroke-width:1;"/><line style="stroke:#181818;stroke-width:1;" x1="314.0747" x2="634.75" y1="839.8125" y2="839.8125"/><text fill="#000000" font-family="sans-serif" font-size="13" lengthAdjust="spacing" textLength="154.6035" x="321.0747" y="819.6138">POST /payment/confirm</text><text fill="#000000" font-family="sans-serif" font-size="13" lengthAdjust="spacing" textLength="163.8521" x="321.0747" y="834.7466">(order_id, status=failure)</text></g><g class="message" data-participant-1="BE" data-participant-2="DB"><polygon fill="#181818" points="923.1777,880.0781,933.1777,884.0781,923.1777,888.0781,927.1777,884.0781" style="stroke:#181818;stroke-width:1;"/><line style="stroke:#181818;stroke-width:1;" x1="640.75" x2="929.1777" y1="884.0781" y2="884.0781"/><text fill="#000000" font-family="sans-serif" font-size="13" lengthAdjust="spacing" textLength="87.1089" x="647.75" y="863.8794">update Order</text><text fill="#000000" font-family="sans-serif" font-size="13" lengthAdjust="spacing" textLength="172.104" x="647.75" y="879.0122">status=\"Payment Failed\"</text></g><g class="message" data-participant-1="FE" data-participant-2="User"><polygon fill="#181818" points="49.9551,924.3438,39.9551,928.3438,49.9551,932.3438,45.9551,928.3438" style="stroke:#181818;stroke-width:1;"/><line style="stroke:#181818;stroke-width:1;stroke-dasharray:2,2;" x1="43.9551" x2="313.0747" y1="928.3438" y2="928.3438"/><text fill="#000000" font-family="sans-serif" font-size="13" lengthAdjust="spacing" textLength="71.1953" x="55.9551" y="908.145">Show error</text><text fill="#000000" font-family="sans-serif" font-size="13" lengthAdjust="spacing" textLength="105.3076" x="55.9551" y="923.2778">and retry option</text></g><!--SRC=[bLHDZzem4BtxLunog8eQuBvIAZKBI9mMBTkU8Y6lFInUWXtveuX_tt4oGInRLUenzhmtyzuR9vhO8coZDnt2e_GQDl9oGXjXrRepJ65xSDqMRK0Xf8hEmy-0NdJIHwDC9wcmM7bd8rhTsA-_4ixUmwG06M2r_5XMItKSgXRlqhuv-B5P3vNrNIMFG_VzzVRbURrP2YsZV9K1eLZKHFBaDNfkjQY5o7F1z3krXGTunjy6pw285Rw0QeqwDhOfI1kSJJpqIfj2K2qXwepOF6rVOAuEg8ukHUBFs1AarXv3A26wADk9g7l4eYQ4yYWZGaUQZ7s3VXx2XIXZ2XKVbz19ewkzR0EEw44FCJmE3EpuEfkOEykJIvPwg-GzMdKfmMNkdT4JmTZfTUmxhD5bbaiVku0qOHoQZhwCH6LZFrG9KLL3_ChPlV4d6OspO2oyUdVEpbRLdSLBQkcpmneqHcdQm7PUvJ5LfkKniwstRKl6Kx8VfFKDEbv4yZ-r6HgIKfJ5V4_DaYSxXMmZyAa0-9GcCynv4AAuwX_PTwPthZ_Yv9XmGemtQQTEvwmuvJxKw1EIaGpBssLegSfyUyjTpMOpvXgbtPeyJaL2JYVfBnDMGhMztm_v2PvvUtj3UC1zQfi2lWsPNZD0MZHWX_xN4rPozVSV1jo8vjy5WJ2_gRzD3-Yz8vIqckAC_WAkoze5FP8_]--></g></svg>